#!OML:ASF F:\VICON\USERDATA\INSTALL\rory3\rory3.ASF
:FULLY-SPECIFIED
:DEGREES
288
root 4.05273 16.8052 -5.38043 379.232 41.0875 3.48575
lowerback -3.68382 4.80517 2.52982
upperback -3.62347 6.50194 4.31893
thorax -1.90911 3.29911 3.1566
lowerneck 0.726145 -17.4891 -19.0647
upperneck 22.6408 -25.7706 13.316
head 11.5639 -12.4107 4.42284
rclavicle 7.35503e-015 6.36111e-014
rhumerus -21.785 11.6807 -78.0908
rradius 31.9039
rwrist 17.2147
rhand -20.476 -40.3372
rfingers 7.12502
rthumb 185.88 109.764
lclavicle 7.35503e-015 6.36111e-014
lhumerus -65.7575 21.6723 -9.44655
lradius 31.8959
lwrist 34.7335
lhand -45.0639 -749.679
lfingers 7.12502
lthumb -17.8451 -0.477858
rfemur -47.5837 -0.947715 8.04395
rtibia 47.9954
rfoot -14.9662 -22.2065
rtoes -0.409297
lfemur -23.5384 -2.76398 -23.3196
ltibia 38.4666
lfoot -26.9224 24.7082
ltoes -6.46893
289
root 4.05385 16.8021 -5.3519 379.504 41.0271 3.6861
lowerback -3.60943 4.62542 2.71142
upperback -3.46494 6.25764 4.58382
thorax -1.78861 3.17683 3.32674
lowerneck 0.409026 -17.4694 -19.2667
upperneck 22.445 -25.6618 13.3133
head 11.5562 -12.3656 4.43609
rclavicle -8.11041e-014 -4.77083e-014
rhumerus -20.8207 10.4874 -77.046
rradius 32.053
rwrist 17.7342
rhand -21.3986 -40.7302
rfingers 7.12502
rthumb 184.989 109.349
lclavicle -8.11041e-014 -4.77083e-014
lhumerus -64.9923 21.3101 -9.50005
lradius 32.3215
lwrist 35.5075
lhand -45.2312 -750.535
lfingers 7.12502
lthumb -18.0061 -1.34842
rfemur -47.8518 -2.16706 8.14773
rtibia 47.6274
rfoot -15.2964 -21.6482
rtoes -0.58854
lfemur -23.4596 -3.0393 -23.4314
ltibia 38.3113
lfoot -27.0902 24.8762
ltoes -6.00968
290
root 4.0514 16.7972 -5.31934 380.173 40.8192 4.23599
lowerback -3.78037 5.12783 2.59056
upperback -3.5898 6.92012 4.16214
thorax -1.8099 3.50427 2.9816
lowerneck 1.40719 -17.9175 -18.1748
upperneck 21.5654 -26.4215 13.5736
head 11.0535 -12.6831 4.35039
rclavicle -2.24627e-014 -5.08889e-014
rhumerus -20.5911 8.18802 -76.0071
rradius 32.2218
rwrist 17.2306
rhand -22.2092 -41.7304
rfingers 7.12502
rthumb 184.207 108.331
lclavicle -2.24627e-014 -5.08889e-014
lhumerus -61.6004 21.4072 -8.75072
lradius 32.4052
lwrist 35.7683
lhand -45.1651 -750.002
lfingers 7.12502
lthumb -17.9425 -0.809792
rfemur -48.3571 -3.10936 7.85675
rtibia 47.2924
rfoot -15.6233 -21.3519
rtoes -0.445737
lfemur -23.5452 -3.45357 -23.8283
ltibia 38.1369
lfoot -27.0949 25.2843
ltoes -5.9037
291
root 4.02682 16.7974 -5.23227 380.317 40.4952 4.02024
lowerback -4.006 5.10993 2.3427
upperback -3.64733 6.90204 4.36908
thorax -1.79923 3.50757 3.34793
lowerneck 1.43738 -17.8857 -17.965
upperneck 21.5974 -26.3412 13.3782
head 10.9813 -12.6471 4.28279
rclavicle 1.41137e-014 -1.90833e-014
rhumerus -19.4602 8.64904 -75.1521
rradius 32.0161
rwrist 15.8269
rhand -22.7708 -43.1403
rfingers 7.12502
rthumb 183.664 106.911
lclavicle 1.41137e-014 -1.90833e-014
lhumerus -60.2016 21.3011 -9.41337
lradius 32.3821
lwrist 35.7121
lhand -45.2483 -748.249
lfingers 7.12502
lthumb -18.0226 0.936311
rfemur -48.8672 -2.34915 7.8471
rtibia 46.9345
rfoot -15.812 -22.5332
rtoes -0.147959
lfemur -23.6229 -3.94352 -23.4198
ltibia 37.9245
lfoot -26.9272 26.1813
ltoes -6.13689
292
root 4.04293 16.8028 -5.23339 380.675 40.7297 4.446
lowerback -3.43473 4.91848 3.35792
upperback -3.71938 6.65472 4.23315
thorax -2.05118 3.35228 2.59135
lowerneck 1.00043 -17.9492 -17.9601
upperneck 22.097 -26.3761 13.1063
head 11.2115 -12.6406 4.13429
rclavicle 6.04305e-014 4.13472e-014
rhumerus -18.1787 8.54279 -74.1578
rradius 31.7202
rwrist 15.0777
rhand -23.1172 -43.8682
rfingers 7.12502
rthumb 183.33 106.178
lclavicle 6.04305e-014 4.13472e-014
lhumerus -58.9112 21.3113 -10.0453
lradius 32.2955
lwrist 35.6372
lhand -45.5117 -746.687
lfingers 7.12502
lthumb -18.276 2.47454
rfemur -49.0287 -4.2487 7.89602
rtibia 46.5737
rfoot -15.3877 -22.2284
rtoes -1.312
lfemur -23.4323 -4.46788 -23.7822
ltibia 37.6332
lfoot -26.5968 26.7518
ltoes -6.58185
293
root 4.03403 16.8087 -5.19339 381.267 40.5892 4.79487
lowerback -3.66009 4.84728 3.12256
upperback -3.62528 6.5544 4.55049
thorax -1.89038 3.31655 3.06991
lowerneck 0.650256 -18.0802 -18.2112
upperneck 22.2554 -26.4729 12.9054
head 11.3593 -12.6901 4.03347
rclavicle -3.33958e-014 -1.90833e-014
rhumerus -16.9209 8.12234 -72.7006
rradius 31.544
rwrist 14.7943
rhand -23.4167 -44.0605
rfingers 7.12502
rthumb 183.041 105.981
lclavicle -3.33958e-014 -1.90833e-014
lhumerus -57.7579 21.6076 -10.2672
lradius 32.155
lwrist 35.4514
lhand -46.4151 -749.226
lfingers 7.12502
lthumb -19.1449 -0.148783
rfemur -49.5885 -4.70407 7.65547
rtibia 46.2195
rfoot -15.5266 -22.8028
rtoes -0.854736
lfemur -23.5266 -5.18731 -23.917
ltibia 37.3751
lfoot -27.1185 26.9467
ltoes -4.9633
294
root 4.03661 16.819 -5.11524 381.364 40.633 4.75396
lowerback -3.58463 4.71802 3.51675
upperback -3.78047 6.39115 4.58565
thorax -2.05077 3.22551 2.87316
lowerneck 0.789873 -18.0304 -17.963
upperneck 22.2906 -26.3886 12.718
head 11.2627 -12.6556 3.97741
rclavicle 5.4467e-014 1.27222e-014
rhumerus -16.3617 7.51021 -72.1043
rradius 31.3244
rwrist 14.7367
rhand -23.5488 -44.2896
rfingers 7.12502
rthumb 182.913 105.751
lclavicle 5.4467e-014 1.27222e-014
lhumerus -56.2419 21.4531 -10.9485
lradius 32.1305
lwrist 35.2917
lhand -47.322 -753.088
lfingers 7.12502
lthumb -20.0169 -4.09945
rfemur -49.7255 -5.19017 7.88223
rtibia 45.9354
rfoot -16.0251 -23.3126
rtoes 0.518835
lfemur -23.2557 -5.72666 -23.6712
ltibia 37.1421
lfoot -27.8761 26.8638
ltoes -3.30137
295
root 4.0252 16.8158 -5.07146 381.776 40.5782 4.77132
lowerback -3.5773 4.60288 3.85093
upperback -3.88837 6.24414 4.70319
thorax -2.14278 3.14598 2.80326
lowerneck 0.749736 -17.9209 -17.7023
upperneck 22.2039 -26.1648 12.4777
head 11.1181 -12.5563 3.91415
rclavicle -5.96354e-014 -3.18055e-015
rhumerus -15.4418 7.36245 -71.3457
rradius 31.029
rwrist 14.2501
rhand -23.6826 -45.1069
rfingers 7.12502
rthumb 182.784 104.932
lclavicle -5.96354e-014 -3.18055e-015
lhumerus -55.0805 21.5738 -11.5104
lradius 32.2287
lwrist 34.8767
lhand -46.7757 -752.57
lfingers 7.12502
lthumb -19.4916 -3.52728
rfemur -50.4096 -5.89784 8.16572
rtibia 45.7153
rfoot -15.9004 -23.8228
rtoes 0.892078
lfemur -23.5535 -5.85781 -23.5294
ltibia 36.9988
lfoot -27.7234 27.1913
ltoes -3.32905
296
root 4.00848 16.8002 -5.02506 382.399 40.4576 5.13581
lowerback -3.66859 4.53421 3.85612
upperback -3.87663 6.14729 4.77758
thorax -2.0855 3.09973 2.88395
lowerneck 0.583026 -17.9136 -17.6372
upperneck 22.1608 -26.1204 12.4491
head 11.1097 -12.5249 3.89069
rclavicle 1.19271e-014 -1.27222e-014
rhumerus -14.3697 7.11549 -70.4329
rradius 30.7442
rwrist 13.5301
rhand -24.1841 -46.2585
rfingers 7.12502
rthumb 182.3 103.774
lclavicle 1.19271e-014 -1.27222e-014
lhumerus -53.6991 21.7129 -11.6622
lradius 32.3342
lwrist 34.4602
lhand -46.0163 -751.595
lfingers 7.12502
lthumb -18.7613 -2.48002
rfemur -51.167 -6.65106 8.16457
rtibia 45.5035
rfoot -15.2441 -24.4566
rtoes 0.521398
lfemur -23.8708 -6.06577 -23.6623
ltibia 36.9194
lfoot -27.5502 27.6545
ltoes -3.48392
297
root 4.00707 16.7937 -4.95038 382.777 40.4562 5.21324
lowerback -4.06875 4.45046 4.04343
upperback -3.80592 6.0012 4.95466
thorax -1.78714 3.0293 2.99967
lowerneck 0.440791 -17.9457 -17.7692
upperneck 22.1266 -26.1496 12.5044
head 11.1566 -12.535 3.90253
rclavicle -1.00983e-013 -2.22639e-014
rhumerus -13.3543 6.67922 -69.4809
rradius 30.4624
rwrist 12.9891
rhand -24.5682 -46.8669
rfingers 7.12502
rthumb 181.929 103.162
lclavicle -1.00983e-013 -2.22639e-014
lhumerus -52.4516 22.3251 -12.169
lradius 32.3212
lwrist 33.2877
lhand -45.8573 -752.102
lfingers 7.12502
lthumb -18.6084 -2.97173
rfemur -51.7246 -7.61175 8.51594
rtibia 45.3102
rfoot -15.0432 -24.8042
rtoes 1.13313
lfemur -24.0213 -5.8352 -23.5819
ltibia 36.9314
lfoot -27.9019 27.4516
ltoes -3.13242
298
root 3.98631 16.8015 -4.89082 382.792 40.2692 4.79366
lowerback -3.92796 4.36203 4.52375
upperback -3.81002 5.89139 5.22388
thorax -1.85148 2.96807 3
lowerneck 0.110092 -17.8747 -17.7562
upperneck 22.2067 -25.975 12.3315
head 11.1869 -12.45 3.84527
rclavicle 9.66093e-014 -4.13472e-014
rhumerus -12.2292 6.17397 -68.7203
rradius 30.0764
rwrist 12.8773
rhand -24.7106 -47.2929
rfingers 7.12502
rthumb 181.791 102.735
lclavicle 9.66093e-014 -4.13472e-014
lhumerus -51.6227 23.3824 -13.3063
lradius 32.2225
lwrist 31.5231
lhand -45.6977 -751.117
lfingers 7.12502
lthumb -18.4549 -1.97253
rfemur -52.2725 -7.62573 8.99226
rtibia 45.0917
rfoot -15.6246 -25.5774
rtoes 2.83383
lfemur -24.2303 -5.51445 -23.0975
ltibia 36.9572
lfoot -28.5635 27.0403
ltoes -1.79584
299
root 3.97044 16.7915 -4.84607 383.047 40.1096 4.79827
lowerback -3.61288 4.22838 5.05588
upperback -3.8173 5.73087 5.32284
thorax -1.993 2.87381 2.78088
lowerneck -0.185178 -17.8067 -17.6926
upperneck 22.1213 -25.8113 12.2339
head 11.1545 -12.3683 3.81122
rclavicle -3.4191e-014 -8.5875e-014
rhumerus -11.1175 5.61877 -68.0652
rradius 29.6661
rwrist 13.1265
rhand -25.1086 -47.7959
rfingers 7.12502
rthumb 181.407 102.229
lclavicle -3.4191e-014 -8.5875e-014
lhumerus -50.451 23.5955 -13.7058
lradius 32.1056
lwrist 30.8242
lhand -45.7784 -750.372
lfingers 7.12502
lthumb -18.5325 -1.23445
rfemur -52.8232 -8.30091 9.35572
rtibia 44.9485
rfoot -15.991 -26.0356
rtoes 3.34462
lfemur -24.4083 -5.49865 -22.9943
ltibia 37.0132
lfoot -28.9386 27.0571
ltoes -1.2427
300
root 3.94473 16.7769 -4.7761 383.522 39.9226 4.89616
lowerback -3.65057 4.1102 5.08338
upperback -3.81532 5.57638 5.52771
thorax -1.98723 2.8009 2.97751
lowerneck 0.19254 -17.7369 -17.7197
upperneck 21.3341 -25.7263 12.5096
head 10.8218 -12.3559 3.97086
rclavicle -9.93923e-015 3.81667e-014
rhumerus -9.99786 5.22171 -67.2795
rradius 29.2559
rwrist 13.339
rhand -25.0078 -48.1329
rfingers 7.12502
rthumb 181.504 101.893
lclavicle -9.93923e-015 3.81667e-014
lhumerus -48.9701 22.96 -13.2378
lradius 32.0074
lwrist 31.0426
lhand -46.0297 -751.054
lfingers 7.12502
lthumb -18.7743 -1.94014
rfemur -53.5273 -8.59151 9.59145
rtibia 44.8605
rfoot -16.4638 -26.9836
rtoes 3.84283
lfemur -24.7978 -5.4282 -22.8803
ltibia 37.0885
lfoot -28.8401 27.5045
ltoes -2.02056
301
root 3.91945 16.765 -4.7126 383.759 39.8992 4.76664
lowerback -3.57871 3.94128 5.35651
upperback -3.80468 5.36197 5.82597
thorax -2.02022 2.69346 3.12741
lowerneck 0.976028 -17.6091 -17.8104
upperneck 20.2452 -25.6105 12.9762
head 10.3438 -12.3498 4.24967
rclavicle 1.51076e-014 -1.59028e-014
rhumerus -8.91246 4.97788 -66.519
rradius 28.8879
rwrist 13.1395
rhand -25.0503 -48.1552
rfingers 7.12502
rthumb 181.463 101.87
lclavicle 1.51076e-014 -1.59028e-014
lhumerus -47.5388 22.007 -12.5978
lradius 31.9127
lwrist 31.6445
lhand -45.9887 -751.337
lfingers 7.12502
lthumb -18.7348 -2.21905
rfemur -54.1902 -9.04789 10.1336
rtibia 44.9403
rfoot -17.0232 -27.7628
rtoes 3.91162
lfemur -25.1054 -5.43347 -22.5212
ltibia 37.205
lfoot -28.9812 27.7324
ltoes -2.15791
302
root 3.90067 16.7526 -4.65366 383.937 39.8836 4.72563
lowerback -3.45255 3.73605 5.68708
upperback -3.73111 5.09606 6.10406
thorax -2.01008 2.55835 3.22302
lowerneck 0.829077 -17.5086 -17.9389
upperneck 20.0924 -25.4292 12.9957
head 10.3041 -12.2717 4.29348
rclavicle 5.00937e-014 2.8625e-014
rhumerus -7.83609 5.00048 -65.8384
rradius 28.527
rwrist 12.4841
rhand -25.9877 -48.0409
rfingers 7.12502
rthumb 180.558 101.98
lclavicle 5.00937e-014 2.8625e-014
lhumerus -46.3865 21.0036 -11.9654
lradius 32.1493
lwrist 32.3374
lhand -45.9639 -752.413
lfingers 7.12502
lthumb -18.7109 -3.2928
rfemur -54.7745 -10.0021 10.8331
rtibia 45.0963
rfoot -17.6164 -28.0047
rtoes 3.64549
lfemur -25.1873 -5.34474 -22.2819
ltibia 37.2245
lfoot -29.1626 27.7613
ltoes -2.08647
